<?xml version="1.0" encoding="UTF-8"?>
<!DOCTYPE svg PUBLIC "-//W3C//DTD SVG 1.1//EN" "http://www.w3.org/Graphics/SVG/1.1/DTD/svg11.dtd">
<!-- Creator: CorelDRAW 2020 (64-Bit Evaluation Version) -->
<svg xmlns="http://www.w3.org/2000/svg" xml:space="preserve" width="11.6499in" height="3.50617in" version="1.1" style="shape-rendering:geometricPrecision; text-rendering:geometricPrecision; image-rendering:optimizeQuality; fill-rule:evenodd; clip-rule:evenodd"
viewBox="0 0 11692.65 3519.03"
 xmlns:xlink="http://www.w3.org/1999/xlink"
 xmlns:xodm="http://www.corel.com/coreldraw/odm/2003">
 <defs>
  <style type="text/css">
   <![CDATA[
    .fil1 {fill:white;fill-rule:nonzero}
    .fil0 {fill:white;fill-rule:nonzero}
   ]]>
  </style>
 </defs>
 <g id="Layer_x0020_1">
  <metadata id="CorelCorpID_0Corel-Layer"/>
  <g id="_1375708729856">
   <polygon class="fil0" points="756.69,0 -0,3496.67 879.92,3496.67 1631.93,0 "/>
   <path class="fil1" d="M2921.13 3519.03c-225.88,0 -427.8,-29.95 -605.77,-89.84 -177.97,-59.9 -329.4,-148.03 -454.33,-264.39 -124.92,-116.36 -219.89,-260.1 -284.92,-431.23 -65.02,-171.12 -97.54,-367.91 -97.54,-590.37 0,-215.61 31.66,-414.11 94.97,-595.5 63.32,-181.4 154.02,-337.97 272.08,-469.73 118.08,-131.77 263.53,-233.58 436.36,-305.45 172.83,-71.87 367.05,-107.81 582.67,-107.81 219.04,0 411.55,35.08 577.54,105.24 165.98,70.16 302.88,173.69 410.68,310.59 107.81,136.9 187.39,303.74 238.72,500.53 51.34,196.78 68.45,421.8 51.34,675.06l-2120.2 15.41 0 -431.23 1647.9 -15.41 -292.62 200.21c23.95,-171.12 13.68,-310.58 -30.81,-418.39 -44.49,-107.81 -109.51,-186.52 -195.08,-236.15 -85.56,-49.63 -177.97,-74.44 -277.22,-74.44 -119.78,0 -225.02,32.52 -315.72,97.54 -90.7,65.03 -161.7,159.14 -213.05,282.35 -51.33,123.21 -77,273.79 -77,451.76 0,280.64 60.74,484.28 182.24,610.91 121.5,126.64 276.37,189.94 464.6,189.94 92.41,0 169.41,-12.83 231.01,-38.49 61.61,-25.68 112.09,-58.18 151.45,-97.54 39.36,-39.36 70.16,-83 92.4,-130.92 22.24,-47.92 40.22,-94.11 53.91,-138.6l718.71 154c-27.38,126.64 -71.01,241.28 -130.91,343.96 -59.9,102.67 -140.32,191.66 -241.28,266.95 -100.96,75.29 -222.46,132.61 -364.49,171.98 -142.03,39.36 -310.59,59.03 -505.67,59.03z"/>
   <path class="fil1" d="M5514.35 3513.9c-318.29,0 -552.72,-84.7 -703.31,-254.11 -150.59,-169.41 -225.88,-440.64 -225.88,-813.69l0 -1062.67 -385.03 0 15.41 -641.7 277.21 0c109.52,-3.43 192.52,-20.54 248.98,-51.34 56.47,-30.8 91.55,-88.98 105.24,-174.55l66.74 -379.88 467.16 0 0 600.64 651.98 0 0 672.51 -651.98 0 0 1001.06c0,116.36 28.24,201.93 84.7,256.68 56.48,54.76 142.89,82.14 259.25,82.14 65.02,0 126.63,-6.85 184.81,-20.54 58.18,-13.69 106.09,-32.51 143.75,-56.47l0 764.91c-109.51,34.23 -209.62,55.62 -300.32,64.17 -90.7,8.55 -170.26,12.84 -238.71,12.84z"/>
   <path class="fil1" d="M7281.05 3519.03c-321.71,0 -563.84,-108.66 -726.41,-325.98 -162.56,-217.33 -243.84,-548.45 -243.84,-993.37l0 -1463.09 831.65 0 0 1355.27c0,253.27 37.65,442.36 112.94,567.27 75.29,124.92 189.94,187.38 343.95,187.38 92.41,0 171.98,-23.1 238.71,-69.3 66.74,-46.2 123.21,-111.23 169.41,-195.07 46.21,-83.85 80.43,-180.53 102.67,-290.06 22.25,-109.51 33.37,-229.3 33.37,-359.35l0 -1196.13 826.52 0 0 1611.96 0 1140.31 -657.1 0 -15.4 -878.49 -102.67 0c-51.35,212.19 -115.51,385.88 -192.52,521.06 -77,135.19 -173.68,233.58 -290.05,295.19 -116.36,61.6 -260.11,92.4 -431.23,92.4z"/>
   <path class="fil1" d="M10440.04 3519.03c-181.39,0 -345.66,-16.26 -492.83,-48.77 -147.16,-32.5 -275.51,-79.57 -385.02,-141.17 -109.53,-61.61 -199.36,-136.04 -269.52,-223.32 -70.17,-87.27 -118.93,-183.95 -146.31,-290.05l616.04 -272.08c23.95,58.18 65.87,117.22 125.77,177.11 59.89,59.89 140.32,108.66 241.28,146.3 100.96,37.65 223.31,56.48 367.05,56.48 136.9,0 243.85,-19.68 320.85,-59.05 77.01,-39.36 115.51,-96.68 115.51,-171.97 0,-54.76 -21.39,-98.39 -64.17,-130.91 -42.79,-32.51 -106.95,-61.6 -192.52,-87.27 -85.55,-25.66 -191.66,-50.48 -318.28,-74.44 -130.05,-27.38 -261.81,-59.03 -395.29,-94.97 -133.48,-35.93 -258.4,-85.56 -374.76,-148.88 -116.37,-63.31 -209.63,-147.16 -279.79,-251.55 -70.16,-104.39 -105.24,-237 -105.24,-397.86 0,-167.71 44.49,-314.01 133.48,-438.93 88.98,-124.92 221.6,-223.31 397.86,-295.18 176.25,-71.87 391.01,-107.81 644.27,-107.81 225.89,0 424.39,29.09 595.51,87.27 171.12,58.18 314.01,141.18 428.66,248.98 114.65,107.81 194.23,237 238.71,387.59l-662.25 236.15c-17.11,-75.29 -52.18,-140.32 -105.23,-195.08 -53.06,-54.76 -119.79,-96.68 -200.21,-125.77 -80.43,-29.09 -175.41,-43.64 -284.92,-43.64 -133.48,0 -237,20.54 -310.59,61.6 -73.58,41.07 -110.37,95.83 -110.37,164.28 0,54.76 24.8,100.11 74.43,136.04 49.63,35.94 120.65,65.89 213.05,89.84 92.4,23.95 201.93,49.63 328.55,77 133.47,27.38 266.09,59.04 397.86,94.98 131.77,35.94 251.55,83.85 359.36,143.74 107.8,59.9 193.36,138.61 256.68,236.15 63.31,97.54 94.97,223.32 94.97,377.33 0,181.39 -47.91,337.97 -143.75,469.73 -95.82,131.76 -237,232.73 -423.52,302.89 -186.52,70.16 -414.97,105.24 -685.35,105.24z"/>
  </g>
 </g>
</svg>
